<?xml version="1.0" encoding="UTF-8"?>
<svg id="Layer_1" data-name="Layer 1" xmlns="http://www.w3.org/2000/svg" viewBox="0 0 340.1 227">
  <defs>
    <style>
      .cls-1 {
        fill: #adadad;
      }

      .cls-2 {
        fill: #545454;
      }
    </style>
  </defs>
  <g>
    <path class="cls-2" d="m222.2,56.9c0-9.6-7.8-17.4-17.4-17.4-10.3,0-18.6,8.4-18.6,18.6v16.2h18.6c9.6.1,17.4-7.8,17.4-17.4Z"/>
    <path class="cls-1" d="m170,81.4h-35.3c-4.8,0-9.3,1.9-12.3,5.2-1.6,1.8-2.9,3.8-3.8,5.9-2.4,5.8-1.7,12.3,2,17.4,3.6,4.9,9.4,7.6,15.6,7.1h.4c2.9-.3,5.5-1.3,7.6-3.1l.3-.2c4.4-3.7,6.9-9.2,6.9-15.2v-2h-13.7v-7h20.7v9c0,8.1-3.4,15.6-9.4,20.6l-.4.3c-3.2,2.5-7.1,4.1-11.3,4.6h-.6c-.7.1-1.4.1-2.1.1-7.8,0-15.1-3.6-19.7-10-5.1-7-6.2-16.1-2.8-24.2,1.2-2.9,2.9-5.6,5.1-8,4.3-4.8,10.7-7.5,17.5-7.5h16.7V2.3c-34.1,8.3-59.3,39-59.3,75.6,0,43,34.9,77.9,77.9,77.9,3.1,0,6.1-.2,9.1-.5v-73.8l-9.1-.1h0Z"/>
    <path class="cls-2" d="m247.9,77.9C247.9,34.9,213,0,170,0c-3.9,0-7.8.3-11.6.9v73.5h20.7v-16.2c0-14.1,11.5-25.7,25.7-25.7s24.4,11,24.4,24.4-11,24.4-24.4,24.4h-18.6v72.7c35.2-7.4,61.7-38.7,61.7-76.1h0Z"/>
  </g>
  <g>
    <path class="cls-1" d="m37.8,189.3c-3.2-3.1-8.1-4.8-12.3-4.8-10.3,0-16.6,7.9-16.6,17.8,0,7.9,4.6,16.1,16.6,16.1,3.8,0,7.1-.8,10.9-3.9v-8.6h-12.4v-8.1h20.7v20.4c-4.8,5.5-10.8,8.7-19.2,8.7-18.2,0-25.5-11.9-25.5-24.6,0-13.6,8.5-26.2,25.5-26.2,6.5,0,13,2.5,17.9,7.4l-5.6,5.8h0Z"/>
    <path class="cls-1" d="m52.2,225.8v-48.3h9v48.3h-9Z"/>
    <path class="cls-1" d="m105.7,189.3c-3.2-3.1-8.1-4.8-12.3-4.8-10.4,0-16.6,7.9-16.6,17.8,0,7.9,4.6,16.1,16.6,16.1,3.8,0,7.1-.8,10.9-3.9v-8.6h-12.3v-8.1h20.7v20.4c-4.8,5.5-10.8,8.7-19.2,8.7-18.1,0-25.5-11.9-25.5-24.6,0-13.6,8.5-26.2,25.5-26.2,6.5,0,13,2.5,17.9,7.4l-5.7,5.8h0Z"/>
    <path class="cls-2" d="m142.9,211.6h-13.7v14.2h-9.1v-48.3c7.6,0,15.2-.1,22.8-.1,23.6,0,23.7,34.2,0,34.2h0Zm-13.7-8.4h13.7c11.7,0,11.6-17.1,0-17.1h-13.7v17.1Z"/>
    <path class="cls-2" d="m209.2,177.5v27.7c0,14.3-8.8,21.6-20.9,21.6s-21.5-7-21.5-21.6v-27.7h9v27.7c0,8.7,5,13.3,12.5,13.3s11.8-5,11.8-13.3v-27.7h9.1,0Z"/>
    <path class="cls-2" d="m227.2,177.5v39.9h24.8v8.4h-34v-48.3h9.2Z"/>
    <path class="cls-2" d="m288.2,189.1c-1.7-2.8-6.2-5.4-11.5-5.4-6.8,0-10,2.8-10,6.4,0,4.2,5,5.4,10.8,6.1,10.1,1.2,19.5,3.9,19.5,15.4,0,10.8-9.5,15.4-20.3,15.4-9.9,0-17.5-3-21-11.9l7.6-3.9c2.1,5.3,7.7,7.7,13.6,7.7s11.1-2,11.1-7.2c0-4.6-4.8-6.4-11.2-7.1-9.9-1.2-19-3.8-19-14.6,0-9.9,9.8-14,18.7-14.1,7.5,0,15.3,2.1,19,9.6l-7.3,3.6h0Z"/>
    <path class="cls-2" d="m340.1,225.8h-36.2v-48.3h36.2v8.8h-27.1v11.1h26.2v8.5h-26.2v10.9h27.1v9Z"/>
  </g>
</svg>