<?xml version="1.0" encoding="UTF-8"?>
<svg id="Layer_1" data-name="Layer 1" xmlns="http://www.w3.org/2000/svg" viewBox="0 0 155.8 155.8">
  <defs>
    <style>
      .cls-1 {
        fill: #adadad;
      }

      .cls-2 {
        fill: #545454;
      }
    </style>
  </defs>
  <path class="cls-2" d="m130.1,56.9c0-9.6-7.8-17.4-17.4-17.4-10.3,0-18.6,8.4-18.6,18.6v16.2h18.6c9.6.1,17.4-7.8,17.4-17.4Z"/>
  <path class="cls-1" d="m77.9,81.4h-35.3c-4.8,0-9.3,1.9-12.3,5.2-1.6,1.8-2.9,3.8-3.8,5.9-2.4,5.8-1.7,12.3,2,17.4,3.6,4.9,9.4,7.6,15.6,7.1h.4c2.9-.3,5.5-1.3,7.6-3.1l.3-.2c4.4-3.7,6.9-9.2,6.9-15.2v-2h-13.7v-7h20.7v9c0,8.1-3.4,15.6-9.4,20.6l-.4.3c-3.2,2.5-7.1,4.1-11.3,4.6h-.6c-.7.1-1.4.1-2.1.1-7.8,0-15.1-3.6-19.7-10-5.1-7-6.2-16.1-2.8-24.2,1.2-2.9,2.9-5.6,5.1-8,4.3-4.8,10.7-7.5,17.5-7.5h16.7V2.3C25.2,10.6,0,41.3,0,77.9c0,43,34.9,77.9,77.9,77.9,3.1,0,6.1-.2,9.1-.5v-73.8l-9.1-.1h0Z"/>
  <path class="cls-2" d="m155.8,77.9C155.8,34.9,120.9,0,77.9,0c-3.9,0-7.8.3-11.6.9v73.5h20.7v-16.2c0-14.1,11.5-25.7,25.7-25.7s24.4,11,24.4,24.4-11,24.4-24.4,24.4h-18.6v72.7c35.2-7.4,61.7-38.7,61.7-76.1h0Z"/>
</svg>