<?xml version="1.0" encoding="utf-8"?>
<!-- Generator: Adobe Illustrator 27.1.1, SVG Export Plug-In . SVG Version: 6.00 Build 0)  -->
<svg version="1.1" id="Layer_1" xmlns="http://www.w3.org/2000/svg" xmlns:xlink="http://www.w3.org/1999/xlink" x="0px" y="0px"
	 viewBox="0 0 500 500" style="enable-background:new 0 0 500 500;" xml:space="preserve">
<style type="text/css">
	.st0{fill:#3B5B72;}
	.st1{fill:#5DCDDE;}
</style>
<g>
	<g>
		<path class="st0" d="M302.2,193.4c0-9.6-7.8-17.4-17.4-17.4c-10.3,0-18.6,8.4-18.6,18.6v16.2h18.6
			C294.4,210.9,302.2,203,302.2,193.4z"/>
		<path class="st1" d="M250,217.9h-18.6h-16.7c-4.8,0-9.3,1.9-12.3,5.2c-1.6,1.8-2.9,3.8-3.8,5.9c-2.4,5.8-1.7,12.3,2,17.4
			c3.6,4.9,9.4,7.6,15.6,7.1l0.4,0c2.9-0.3,5.5-1.3,7.6-3.1l0.3-0.2c4.4-3.7,6.9-9.2,6.9-15.2v-2h-13.7v-7h20.7v9
			c0,8.1-3.4,15.6-9.4,20.6l-0.4,0.3c-3.2,2.5-7.1,4.1-11.3,4.6l-0.6,0c-0.7,0.1-1.4,0.1-2.1,0.1c-7.8,0-15.1-3.6-19.7-10
			c-5.1-7-6.2-16.1-2.8-24.2c1.2-2.9,2.9-5.6,5.1-8c4.3-4.8,10.7-7.5,17.5-7.5h16.7v-72.1c-34.1,8.3-59.3,39-59.3,75.6
			c0,43,34.9,77.9,77.9,77.9c3.1,0,6.1-0.2,9.1-0.5v-73.8L250,217.9L250,217.9z"/>
		<path class="st0" d="M327.9,214.4c0-43-34.9-77.9-77.9-77.9c-3.9,0-7.8,0.3-11.6,0.9v73.5H250h9.1v-16.2
			c0-14.1,11.5-25.7,25.7-25.7c13.5,0,24.4,11,24.4,24.4s-11,24.4-24.4,24.4h-18.6v72.7C301.4,283.1,327.9,251.8,327.9,214.4z"/>
	</g>
	<g>
		<path class="st1" d="M117.8,325.8c-3.2-3.1-8.1-4.8-12.3-4.8c-10.3,0-16.6,7.9-16.6,17.8c0,7.9,4.6,16.1,16.6,16.1
			c3.8,0,7.1-0.8,10.9-3.9v-8.6H104v-8.1h20.7v20.4c-4.8,5.5-10.8,8.7-19.2,8.7c-18.2,0-25.5-11.9-25.5-24.6
			c0-13.6,8.5-26.2,25.5-26.2c6.5,0,13,2.5,17.9,7.4L117.8,325.8z"/>
		<path class="st1" d="M132.2,362.3V314h9v48.3H132.2z"/>
		<path class="st1" d="M185.7,325.8c-3.2-3.1-8.1-4.8-12.3-4.8c-10.4,0-16.6,7.9-16.6,17.8c0,7.9,4.6,16.1,16.6,16.1
			c3.8,0,7.1-0.8,10.9-3.9v-8.6H172v-8.1h20.7v20.4c-4.8,5.5-10.8,8.7-19.2,8.7c-18.1,0-25.5-11.9-25.5-24.6
			c0-13.6,8.5-26.2,25.5-26.2c6.5,0,13,2.5,17.9,7.4L185.7,325.8z"/>
		<path class="st0" d="M222.9,348.1h-13.7v14.2h-9.1V314c7.6,0,15.2-0.1,22.8-0.1C246.5,313.9,246.6,348.1,222.9,348.1z
			 M209.2,339.7h13.7c11.7,0,11.6-17.1,0-17.1h-13.7V339.7z"/>
		<path class="st0" d="M289.2,314v27.7c0,14.3-8.8,21.6-20.9,21.6c-11.6,0-21.5-7-21.5-21.6V314h9v27.7c0,8.7,5,13.3,12.5,13.3
			c7.5,0,11.8-5,11.8-13.3V314H289.2z"/>
		<path class="st0" d="M307.2,314v39.9H332v8.4h-34V314H307.2z"/>
		<path class="st0" d="M368.2,325.6c-1.7-2.8-6.2-5.4-11.5-5.4c-6.8,0-10,2.8-10,6.4c0,4.2,5,5.4,10.8,6.1
			c10.1,1.2,19.5,3.9,19.5,15.4c0,10.8-9.5,15.4-20.3,15.4c-9.9,0-17.5-3-21-11.9l7.6-3.9c2.1,5.3,7.7,7.7,13.6,7.7
			c5.7,0,11.1-2,11.1-7.2c0-4.6-4.8-6.4-11.2-7.1c-9.9-1.2-19-3.8-19-14.6c0-9.9,9.8-14,18.7-14.1c7.5,0,15.3,2.1,19,9.6
			L368.2,325.6z"/>
		<path class="st0" d="M420.1,362.3h-36.2c0-16.1,0-32.2,0-48.3h36.2v8.8h-27.1v11.1h26.2v8.5h-26.2v10.9h27.1V362.3z"/>
	</g>
</g>
</svg>
